<svg width="31" height="16" viewBox="0 0 31 16" fill="none" xmlns="http://www.w3.org/2000/svg">
<rect width="31" height="16" rx="3" fill="#A97A7A" fill-opacity="0.61"/>
<path d="M8.31 5.46V4.83H10.01V12H9.3V5.46H8.31ZM12.9599 8.28C12.5466 8.14667 12.2299 7.93667 12.0099 7.65C11.7966 7.36333 11.6899 7.01667 11.6899 6.61C11.6899 6.25 11.7799 5.93 11.9599 5.65C12.1466 5.36333 12.4166 5.14 12.7699 4.98C13.1233 4.81333 13.5466 4.73 14.0399 4.73C14.5333 4.73 14.9566 4.81333 15.3099 4.98C15.6633 5.14 15.9299 5.36333 16.1099 5.65C16.2966 5.93 16.3899 6.25 16.3899 6.61C16.3899 7.01 16.2799 7.35667 16.0599 7.65C15.8466 7.94333 15.5333 8.15333 15.1199 8.28C15.5733 8.39333 15.9299 8.61 16.1899 8.93C16.4499 9.25 16.5799 9.64 16.5799 10.1C16.5799 10.5267 16.4733 10.9 16.2599 11.22C16.0533 11.5333 15.7566 11.7767 15.3699 11.95C14.9899 12.1233 14.5466 12.21 14.0399 12.21C13.5333 12.21 13.0866 12.1233 12.6999 11.95C12.3199 11.7767 12.0233 11.5333 11.8099 11.22C11.6033 10.9 11.4999 10.5267 11.4999 10.1C11.4999 9.64 11.6299 9.25 11.8899 8.93C12.1499 8.61 12.5066 8.39333 12.9599 8.28ZM15.7099 6.69C15.7099 6.25 15.5599 5.91 15.2599 5.67C14.9599 5.43 14.5533 5.31 14.0399 5.31C13.5266 5.31 13.1199 5.43 12.8199 5.67C12.5199 5.90333 12.3699 6.24333 12.3699 6.69C12.3699 7.10333 12.5233 7.43333 12.8299 7.68C13.1366 7.92667 13.5399 8.05 14.0399 8.05C14.5399 8.05 14.9433 7.92667 15.2499 7.68C15.5566 7.43333 15.7099 7.10333 15.7099 6.69ZM14.0399 8.59C13.4933 8.59 13.0466 8.71333 12.6999 8.96C12.3533 9.20667 12.1799 9.58 12.1799 10.08C12.1799 10.56 12.3466 10.9367 12.6799 11.21C13.0133 11.4833 13.4666 11.62 14.0399 11.62C14.6066 11.62 15.0566 11.4833 15.3899 11.21C15.7233 10.93 15.8899 10.5533 15.8899 10.08C15.8899 9.58667 15.7166 9.21667 15.3699 8.97C15.0299 8.71667 14.5866 8.59 14.0399 8.59ZM22.9902 8.6H20.7602V10.85H20.1102V8.6H17.8902V8H20.1102V5.75H20.7602V8H22.9902V8.6Z" fill="white"/>
</svg>
